<?xml version="1.0" encoding="utf-8"?>
<!-- Generator: Adobe Illustrator 23.1.0, SVG Export Plug-In . SVG Version: 6.00 Build 0)  -->
<svg version="1.1" id="레이어_1" xmlns="http://www.w3.org/2000/svg" xmlns:xlink="http://www.w3.org/1999/xlink" x="0px"
	 y="0px" viewBox="0 0 775.1 402.3" style="enable-background:new 0 0 775.1 402.3;" xml:space="preserve">
<style type="text/css">
	.st0{fill:#F2EDE2;}
	.st1{fill:#FFFFFF;}
	.st2{enable-background:new    ;}
	.st3{fill:#3C3B38;}
	.st4{fill:none;stroke:#000000;stroke-miterlimit:10;}
	.st5{fill:#1E7AD1;}
	.st6{fill:#FFC6BA;}
	.st7{fill:#C5DEE2;}
	.st8{fill:#FAE6E6;}
	.st9{fill:#FFB660;}
</style>
<g>
	<g>
		<g>
			<path class="st0" d="M734.9,379.3h-699c-11.27,0-20.5-9.23-20.5-20.5v-319c0-11.27,9.23-20.5,20.5-20.5h699
				c11.28,0,20.5,9.23,20.5,20.5v319C755.4,370.07,746.18,379.3,734.9,379.3z"/>
		</g>
		<g>
			<path class="st1" d="M209.83,329.03h-108c-8.25,0-15-6.75-15-15l0,0c0-8.25,6.75-15,15-15h108c8.25,0,15,6.75,15,15l0,0
				C224.83,322.28,218.08,329.03,209.83,329.03z"/>
			<g class="st2">
				<path class="st3" d="M118.01,317.63h-7.33V306.6h1.66v3.79h4v-3.79h1.66V317.63z M116.34,316.16v-4.32h-4v4.32H116.34z
					 M122.15,320.06h-1.66v-14h1.66v5.34h2v1.5h-2V320.06z"/>
				<path class="st3" d="M138.65,319.12h-13.79v-1.47h6.18v-2.62h-4.7v-5.04h9.18v-2.1h-9.18v-1.47h10.85v5.01h-9.18v2.13h9.47v1.47
					h-4.74v2.62h5.92V319.12z"/>
				<path class="st3" d="M153.77,319.64h-1.65v-4.53h-1.57c-0.07,0.45-0.2,0.86-0.38,1.22c-0.18,0.37-0.41,0.68-0.69,0.94
					c-0.28,0.26-0.6,0.46-0.96,0.61c-0.36,0.14-0.76,0.22-1.18,0.22c-0.5,0-0.96-0.1-1.36-0.29c-0.41-0.19-0.75-0.46-1.04-0.81
					c-0.29-0.35-0.51-0.76-0.66-1.24c-0.15-0.48-0.23-1.01-0.23-1.58v-3.9c0-0.58,0.08-1.1,0.23-1.58c0.15-0.48,0.38-0.89,0.66-1.24
					c0.29-0.35,0.63-0.62,1.04-0.81c0.41-0.19,0.86-0.29,1.36-0.29c0.8,0,1.47,0.23,2,0.7c0.53,0.46,0.91,1.08,1.12,1.85h1.66v-2.69
					h1.65V319.64z M145.69,314.16c0,0.74,0.14,1.33,0.41,1.79c0.27,0.46,0.69,0.69,1.24,0.69c0.55,0,0.97-0.23,1.24-0.69
					c0.27-0.46,0.41-1.06,0.41-1.79v-3.84c0-0.74-0.14-1.33-0.41-1.79c-0.27-0.46-0.69-0.69-1.24-0.69c-0.55,0-0.97,0.23-1.24,0.69
					c-0.27,0.46-0.41,1.06-0.41,1.79V314.16z M152.12,313.63v-3.23h-1.49v3.23H152.12z M156.95,320.04h-1.66v-13.98h1.66V320.04z"/>
				<path class="st3" d="M165.01,317.56h-6.1v-10.8h6.1V317.56z M163.37,316.09v-7.86h-2.8v7.86H163.37z M171.67,320.04h-1.66v-7.3
					h-1.84v6.9h-1.65v-13.42h1.65v5.02h1.84v-5.18h1.66V320.04z"/>
				<path class="st3" d="M181.97,309.18h-8.93v-1.41h3.63v-1.86h1.66v1.86h3.63V309.18z M181.54,314.78c0,0.51-0.1,0.98-0.29,1.41
					c-0.19,0.43-0.46,0.79-0.82,1.1s-0.78,0.55-1.27,0.72c-0.5,0.17-1.05,0.26-1.66,0.26c-0.62,0-1.18-0.08-1.67-0.26
					c-0.5-0.17-0.92-0.41-1.27-0.72s-0.62-0.68-0.82-1.1c-0.19-0.43-0.29-0.9-0.29-1.41v-1.23c0-0.51,0.1-0.98,0.29-1.41
					c0.19-0.43,0.46-0.79,0.82-1.1s0.78-0.55,1.27-0.72c0.5-0.17,1.05-0.26,1.67-0.26c0.61,0,1.16,0.09,1.66,0.26
					c0.5,0.17,0.92,0.41,1.27,0.72s0.62,0.68,0.82,1.1s0.29,0.9,0.29,1.41V314.78z M179.88,313.66c0-0.7-0.22-1.25-0.65-1.62
					c-0.43-0.38-1.01-0.57-1.72-0.57c-0.73,0-1.3,0.19-1.74,0.56c-0.43,0.37-0.65,0.92-0.65,1.63v1.01c0,0.71,0.22,1.26,0.65,1.63
					c0.43,0.37,1.01,0.56,1.74,0.56c0.71,0,1.29-0.19,1.72-0.56c0.43-0.37,0.65-0.92,0.65-1.63V313.66z M185.03,320.06h-1.66v-14
					h1.66v6.03h2v1.5h-2V320.06z"/>
				<path class="st3" d="M196.17,310.76c0,0.54-0.07,1.02-0.22,1.42c-0.14,0.4-0.41,0.8-0.81,1.19c-0.91,0.91-1.84,1.75-2.8,2.52
					c-0.96,0.77-1.97,1.54-3.04,2.31l-0.96-1.14c0.51-0.38,1.02-0.77,1.53-1.16c0.51-0.39,0.99-0.78,1.46-1.18
					c0.47-0.39,0.91-0.78,1.33-1.15s0.79-0.74,1.12-1.09c0.48-0.51,0.72-1.14,0.72-1.87v-2.38h-5.89v-1.47h7.55V310.76z
					 M200.55,320.06h-1.66v-14h1.66V320.06z"/>
			</g>
		</g>
		<g>
			<g class="st2">
				<path class="st3" d="M122.63,139.3h-34.8v-4.48h26.12v-2.24H90.71v-4.36h23.24v-2H90.71v-4.44h28.76v13.04h3.16V139.3z
					 M120.27,157.38H90.99v-10.12h22.96v-1.64h-23v-4.4h28.52v10.12H96.51v1.64h23.76V157.38z"/>
				<path class="st3" d="M148.99,141.7h-22.6v-11.84h14.52v-2.48h-14.56v-4.72h20.08v11.84h-14.52v2.48h17.08V141.7z M156.95,157.38
					h-5.52v-8.6h-22.48v-4.72h28V157.38z M156.95,142.78h-5.52v-20.8h5.52V142.78z"/>
				<path class="st3" d="M193.95,129.42h-22.64v-4.6h8.6v-3.52h5.52v3.52h8.52V129.42z M178.87,144.86c-0.99,0-1.89-0.17-2.7-0.52
					c-0.81-0.35-1.51-0.83-2.1-1.46c-0.59-0.63-1.04-1.37-1.36-2.22c-0.32-0.85-0.48-1.79-0.48-2.8c0-1.01,0.16-1.95,0.48-2.8
					c0.32-0.85,0.77-1.59,1.36-2.22c0.59-0.63,1.29-1.11,2.1-1.46c0.81-0.35,1.71-0.52,2.7-0.52h7.6c0.99,0,1.89,0.17,2.7,0.52
					c0.81,0.35,1.51,0.83,2.1,1.46c0.59,0.63,1.04,1.37,1.36,2.22c0.32,0.85,0.48,1.79,0.48,2.8c0,1.01-0.16,1.95-0.48,2.8
					c-0.32,0.85-0.77,1.59-1.36,2.22c-0.59,0.63-1.29,1.11-2.1,1.46c-0.81,0.35-1.71,0.52-2.7,0.52H178.87z M203.19,156.98h-27.8
					v-9.96h5.52v5.08h22.28V156.98z M184.87,140.26c0.77,0,1.42-0.21,1.94-0.62s0.78-1.01,0.78-1.78s-0.26-1.37-0.78-1.78
					c-0.52-0.41-1.17-0.62-1.94-0.62h-4.4c-0.77,0-1.42,0.21-1.94,0.62c-0.52,0.41-0.78,1.01-0.78,1.78s0.26,1.37,0.78,1.78
					s1.17,0.62,1.94,0.62H184.87z M202.35,148.98h-5.52v-27h5.52v10.76h4.48v5.08h-4.48V148.98z"/>
				<path class="st3" d="M240.55,148.06h-5.52v-13.24h-5.6v7.96h-19.64V122.7h5.52v5.32h8.6v-5.32h5.52v7.04h5.6v-7.76h5.52V148.06z
					 M241.39,156.98h-28.44V145.3h5.52v6.8h22.92V156.98z M223.91,137.98v-5.24h-8.6v5.24H223.91z"/>
				<path class="st3" d="M279.83,154.94h-34.8v-4.88h34.8V154.94z M256.71,143.7c-1.41,0-2.69-0.27-3.82-0.8
					c-1.13-0.53-2.1-1.27-2.9-2.2c-0.8-0.93-1.41-2.04-1.84-3.32c-0.43-1.28-0.64-2.67-0.64-4.16s0.21-2.89,0.64-4.18
					c0.43-1.29,1.04-2.41,1.84-3.36s1.77-1.69,2.9-2.22c1.13-0.53,2.41-0.8,3.82-0.8h11.48c1.39,0,2.65,0.27,3.78,0.8
					c1.13,0.53,2.1,1.27,2.9,2.22c0.8,0.95,1.42,2.07,1.86,3.36c0.44,1.29,0.66,2.69,0.66,4.18s-0.21,2.88-0.64,4.16
					c-0.43,1.28-1.04,2.39-1.84,3.32c-0.8,0.93-1.77,1.67-2.9,2.2c-1.13,0.53-2.41,0.8-3.82,0.8H256.71z M267.59,138.82
					c0.72,0,1.35-0.15,1.88-0.46c0.53-0.31,0.97-0.72,1.32-1.24c0.35-0.52,0.61-1.12,0.78-1.8c0.17-0.68,0.26-1.38,0.26-2.1
					c0-0.69-0.09-1.38-0.26-2.06c-0.17-0.68-0.43-1.29-0.78-1.82s-0.79-0.97-1.32-1.3c-0.53-0.33-1.16-0.5-1.88-0.5h-10.28
					c-0.72,0-1.35,0.17-1.88,0.5c-0.53,0.33-0.97,0.77-1.32,1.3c-0.35,0.53-0.61,1.14-0.78,1.82c-0.17,0.68-0.26,1.37-0.26,2.06
					c0,0.72,0.09,1.42,0.26,2.1s0.43,1.28,0.78,1.8c0.35,0.52,0.79,0.93,1.32,1.24c0.53,0.31,1.16,0.46,1.88,0.46H267.59z"/>
				<path class="st3" d="M316.63,154.94h-34.8v-4.88h14.8v-5.12h-11.56V131.5h22.8v-3.72h-22.8v-4.88h28.32v13.4h-22.8v3.76h23.48
					v4.88h-11.84v5.12h14.4V154.94z"/>
			</g>
		</g>
		<g class="st2">
			<path class="st3" d="M104.65,76.11H87.41v-1.74h7.56v-1.4h-5.8v-7.64h13.72v1.76H91.25v1.2h11.44v1.72H91.25v1.2h11.98v1.76
				h-6.14v1.4h7.56V76.11z M99.13,77.03c0.63,0,1.2,0.06,1.73,0.18s0.98,0.3,1.36,0.54c0.38,0.24,0.68,0.54,0.89,0.9
				c0.21,0.36,0.32,0.78,0.32,1.26c0,0.48-0.11,0.9-0.32,1.26s-0.51,0.66-0.89,0.9c-0.38,0.24-0.83,0.42-1.36,0.54
				s-1.1,0.18-1.73,0.18h-6.2c-0.63,0-1.2-0.06-1.73-0.18c-0.53-0.12-0.98-0.3-1.36-0.54c-0.38-0.24-0.68-0.54-0.89-0.9
				c-0.21-0.36-0.32-0.78-0.32-1.26c0-0.48,0.11-0.9,0.32-1.26c0.21-0.36,0.51-0.66,0.89-0.9c0.38-0.24,0.83-0.42,1.36-0.54
				c0.53-0.12,1.1-0.18,1.73-0.18H99.13z M99.01,81.05c0.69,0,1.26-0.08,1.69-0.24c0.43-0.16,0.65-0.46,0.65-0.9
				c0-0.44-0.22-0.74-0.65-0.9c-0.43-0.16-1-0.24-1.69-0.24h-5.96c-0.69,0-1.26,0.08-1.69,0.24s-0.65,0.46-0.65,0.9
				c0,0.44,0.22,0.74,0.65,0.9c0.43,0.16,1,0.24,1.69,0.24H99.01z"/>
			<path class="st3" d="M117.01,68.39h-11.16v-1.84h4.56v-1.6h2.08v1.6h4.52V68.39z M110.05,75.27c-1.13,0-2.04-0.24-2.71-0.73
				c-0.67-0.49-1.01-1.25-1.01-2.29s0.34-1.8,1.01-2.29c0.67-0.49,1.58-0.73,2.71-0.73h2.8c1.13,0,2.04,0.24,2.71,0.73
				c0.67,0.49,1.01,1.25,1.01,2.29s-0.34,1.8-1.01,2.29c-0.67,0.49-1.58,0.73-2.71,0.73H110.05z M120.99,82.71h-13.08v-6.26h2.08
				v1.3h8.92v-1.3h2.08V82.71z M112.67,73.51c0.25,0,0.49-0.01,0.71-0.04c0.22-0.03,0.41-0.09,0.58-0.18
				c0.17-0.09,0.3-0.22,0.39-0.39c0.09-0.17,0.14-0.38,0.14-0.65s-0.05-0.48-0.14-0.65c-0.09-0.17-0.22-0.29-0.39-0.38
				c-0.17-0.09-0.36-0.15-0.58-0.18c-0.22-0.03-0.46-0.05-0.71-0.05h-2.44c-0.51,0-0.94,0.08-1.29,0.23
				c-0.35,0.15-0.53,0.5-0.53,1.03c0,0.27,0.05,0.48,0.14,0.65c0.09,0.17,0.22,0.3,0.39,0.39c0.17,0.09,0.36,0.15,0.58,0.18
				c0.22,0.03,0.46,0.04,0.71,0.04H112.67z M118.91,80.99v-1.52h-8.92v1.52H118.91z M120.99,75.77h-2.08v-10.4h2.08v4.38h2.34v1.88
				h-2.34V75.77z"/>
			<path class="st3" d="M141.95,82.35h-2.06v-5.66h-1.96c-0.09,0.56-0.25,1.07-0.48,1.53s-0.51,0.85-0.86,1.18
				c-0.35,0.33-0.75,0.58-1.2,0.76s-0.95,0.27-1.48,0.27c-0.63,0-1.19-0.12-1.7-0.36c-0.51-0.24-0.94-0.58-1.3-1.01
				c-0.36-0.43-0.64-0.95-0.83-1.55c-0.19-0.6-0.29-1.26-0.29-1.98v-4.88c0-0.72,0.1-1.38,0.29-1.98c0.19-0.6,0.47-1.12,0.83-1.55
				c0.36-0.43,0.79-0.77,1.3-1.01c0.51-0.24,1.07-0.36,1.7-0.36c1,0,1.83,0.29,2.5,0.87c0.67,0.58,1.13,1.35,1.4,2.31h2.08v-3.36
				h2.06V82.35z M131.85,75.49c0,0.92,0.17,1.67,0.51,2.24s0.86,0.86,1.55,0.86s1.21-0.29,1.55-0.86s0.51-1.32,0.51-2.24v-4.8
				c0-0.92-0.17-1.67-0.51-2.24s-0.86-0.86-1.55-0.86s-1.21,0.29-1.55,0.86s-0.51,1.32-0.51,2.24V75.49z M139.89,74.83v-4.04h-1.86
				v4.04H139.89z M145.93,82.85h-2.08V65.37h2.08V82.85z"/>
			<path class="st3" d="M156.01,79.75h-7.62v-13.5h7.62V79.75z M153.95,77.91v-9.82h-3.5v9.82H153.95z M164.33,82.85h-2.08v-9.12
				h-2.3v8.62h-2.06V65.57h2.06v6.28h2.3v-6.48h2.08V82.85z"/>
			<path class="st3" d="M176.93,80.11c-0.91-1.08-1.74-2.09-2.5-3.03c-0.76-0.94-1.49-1.9-2.18-2.89c-0.68,0.99-1.45,2-2.3,3.04
				c-0.85,1.04-1.73,2.08-2.62,3.12l-1.36-1.4c0.84-0.96,1.67-1.98,2.49-3.05c0.82-1.07,1.54-2.1,2.17-3.09
				c0.19-0.29,0.32-0.65,0.41-1.06s0.13-0.82,0.13-1.22v-4.52h2.12v4.46c0,0.4,0.04,0.8,0.12,1.21c0.08,0.41,0.21,0.76,0.4,1.05
				c0.64,0.97,1.34,1.97,2.11,3c0.77,1.03,1.56,2.02,2.37,2.98L176.93,80.11z M182.03,82.87h-2.08V72.45h-4.26v-1.88h4.26v-5.2h2.08
				V82.87z"/>
			<path class="st3" d="M194.85,79.83h-9.36V66.05h2.08v4.74h5.2v-4.74h2.08V79.83z M192.77,77.99v-5.4h-5.2v5.4H192.77z
				 M200.43,82.87h-2.08v-17.5h2.08V82.87z"/>
			<path class="st3" d="M220.05,81.69h-17.24v-1.84h17.24V81.69z M218.09,76.75c-1.13-0.75-2.27-1.54-3.4-2.39s-2.23-1.74-3.28-2.67
				c-1.05,0.93-2.14,1.82-3.26,2.67s-2.25,1.64-3.38,2.39l-1.32-1.62c0.48-0.31,0.98-0.64,1.49-1.01c0.51-0.37,1.02-0.74,1.53-1.13
				c0.51-0.39,1-0.77,1.47-1.16c0.47-0.39,0.9-0.75,1.29-1.1c0.37-0.33,0.65-0.66,0.82-0.99c0.17-0.33,0.26-0.72,0.26-1.19v-2.84
				h2.2v2.84c0,0.47,0.09,0.86,0.26,1.19c0.17,0.33,0.45,0.66,0.82,0.99c0.39,0.35,0.82,0.71,1.29,1.1s0.97,0.77,1.48,1.16
				s1.03,0.76,1.55,1.13c0.52,0.37,1.02,0.7,1.5,1.01L218.09,76.75z"/>
		</g>
		<line class="st4" x1="251.4" y1="73.3" x2="344.4" y2="73.3"/>
		<g>
			<g class="st2">
				<path class="st5" d="M115.13,225h-26.1v-40.8h9.8v13h6.5v-13h9.8V225z M105.33,216.75v-11.4h-6.5v11.4H105.33z M128.33,227.85
					h-9.8V183.7h9.8v15.4h6v8.95h-6V227.85z"/>
				<path class="st5" d="M180.13,226.25h-44.1v-8.4h16.65v-4.45h-13.85v-18.45h28.7v-2.6h-28.7v-7.9h38.5v18.15h-28.7v2.65h29.2
					v8.15h-14.35v4.45h16.65V226.25z"/>
				<path class="st5" d="M237.08,227.85h-9.8v-7.1l-4.3,4.3h-25.2V184.2h26.15v8.4h-16.35v7.7h14.95v8.4h-14.95v7.85h19.7V183.7h9.8
					v15.4h6v8.95h-6V227.85z"/>
			</g>
		</g>
		<g>
			<polygon class="st5" points="249.16,182.91 259.48,182.91 258.01,216.3 250.63,216.3 			"/>
			<circle class="st5" cx="254.32" cy="224.3" r="5"/>
		</g>
	</g>
	<g>
		<path class="st6" d="M558.76,169.8l1.89,0.64c6.6,2.24,13.77-1.31,16-7.91l18.46-54.52c2.24-6.6-1.31-13.77-7.91-16l-1.89-0.64
			c-6.6-2.24-13.77,1.31-16,7.91l-18.46,54.52C548.62,160.4,552.16,167.56,558.76,169.8z"/>
		<path class="st3" d="M560.78,171.17l-2.57-0.87c-6.74-2.28-10.37-9.63-8.09-16.37l18.69-55.2c1.11-3.27,3.42-5.91,6.51-7.44
			s6.6-1.76,9.86-0.65l2.57,0.87c6.74,2.28,10.37,9.63,8.09,16.37l-18.69,55.2c-1.82,5.38-6.86,8.77-12.24,8.77
			C563.54,171.85,562.15,171.63,560.78,171.17z M575.9,92.45c-2.78,1.37-4.86,3.75-5.86,6.69l-18.69,55.2
			c-2.05,6.07,1.21,12.67,7.28,14.73l-0.21,0.61l0.21-0.61l2.57,0.87c6.07,2.05,12.67-1.21,14.73-7.28l18.69-55.2
			c2.05-6.07-1.21-12.67-7.28-14.73l-2.57-0.87c-1.22-0.41-2.48-0.62-3.74-0.62C579.27,91.25,577.52,91.65,575.9,92.45z"/>
		<path class="st3" d="M539.98,302.6l77.21-38.13c9.37-4.63,13.22-15.98,8.59-25.35L541.35,68.13c-4.63-9.37-15.98-13.22-25.35-8.59
			l-77.21,38.13c-9.37,4.63-13.22,15.98-8.59,25.35l84.43,170.99C519.26,303.38,530.61,307.23,539.98,302.6z"/>
		<path class="st3" d="M525.32,304.17c-4.95-1.68-8.95-5.18-11.27-9.87l-84.43-170.99c-2.32-4.69-2.67-10-0.99-14.95
			c1.68-4.95,5.18-8.96,9.87-11.27l77.21-38.13c4.69-2.32,10-2.67,14.95-0.99s8.95,5.18,11.27,9.87l84.43,170.99
			c2.32,4.69,2.67,10,0.99,14.95s-5.18,8.96-9.87,11.27l-77.21,38.13c-2.74,1.35-5.68,2.03-8.65,2.03
			C529.5,305.21,527.38,304.87,525.32,304.17z M616.91,263.89c4.38-2.16,7.65-5.9,9.22-10.52c1.57-4.62,1.24-9.58-0.92-13.96
			L540.77,68.42c-2.16-4.38-5.9-7.65-10.52-9.22s-9.58-1.24-13.96,0.92l-77.21,38.13c-4.38,2.16-7.65,5.9-9.22,10.52
			s-1.24,9.58,0.92,13.96l84.43,170.99c2.16,4.38,5.9,7.65,10.52,9.22s9.58,1.24,13.96-0.92L616.91,263.89z"/>
		<g>
			<g>
				<path class="st7" d="M539.5,296.78l73.38-36.23c7.57-3.74,10.68-12.91,6.94-20.48L536.97,72.3
					c-3.74-7.57-12.91-10.68-20.48-6.94l-73.38,36.23c-7.57,3.74-10.68,12.91-6.94,20.48l82.84,167.78
					C522.75,297.41,531.92,300.52,539.5,296.78z"/>
			</g>
		</g>
		<g>
			<path d="M475.77,93.94l14.8-7.31c1.33-0.66,1.9-0.29,2.22,0.35c0.32,0.64,0.26,1.32-1.07,1.98l-14.8,7.31
				c-1.33,0.66-1.9,0.29-2.22-0.35C474.38,95.27,474.44,94.59,475.77,93.94z"/>
		</g>
		<path class="st6" d="M578.51,168.49l9.51-10.2c5.13-5.5,13.75-5.8,19.25-0.67l0.37,0.34c5.5,5.13,5.8,13.75,0.67,19.25l-9.51,10.2
			c-5.13,5.5-13.75,5.8-19.25,0.67l-0.37-0.34C573.69,182.61,573.38,173.99,578.51,168.49z"/>
		<path class="st3" d="M579.11,188.56l-0.37-0.34c-2.79-2.6-4.4-6.13-4.53-9.94s1.22-7.44,3.82-10.23l9.51-10.2
			c5.37-5.75,14.41-6.07,20.17-0.71l0.37,0.34c2.79,2.6,4.4,6.13,4.53,9.94s-1.22,7.44-3.82,10.23l-9.51,10.2
			c-2.6,2.79-6.13,4.4-9.94,4.53c-0.17,0.01-0.34,0.01-0.51,0.01C585.21,192.39,581.77,191.04,579.11,188.56z M588.5,158.74
			l-9.51,10.2l0,0c-2.36,2.53-3.6,5.84-3.48,9.3s1.58,6.67,4.12,9.03l0.37,0.34c2.53,2.36,5.84,3.6,9.3,3.48
			c3.46-0.12,6.67-1.58,9.03-4.12l9.51-10.2c2.36-2.53,3.6-5.84,3.48-9.3s-1.58-6.67-4.12-9.03l-0.37-0.34
			c-2.5-2.33-5.67-3.48-8.84-3.48C594.51,154.62,591.05,156,588.5,158.74z"/>
		<path class="st8" d="M594.2,185.55l2.73-2.8c3.19-3.26,3.13-8.49-0.14-11.68l-0.93-0.91c-3.26-3.19-8.49-3.13-11.68,0.14
			l-2.73,2.8c-1.62,1.66-1.59,4.31,0.07,5.93l6.75,6.6C589.93,187.24,592.58,187.21,594.2,185.55z"/>
		<path class="st3" d="M588.26,186.52l-7.64-7.46c-0.81-0.79-1.26-1.84-1.27-2.97s0.41-2.19,1.2-3l4.02-4.11
			c2.96-3.03,7.85-3.09,10.88-0.13l2.67,2.61c1.47,1.44,2.29,3.36,2.32,5.41s-0.75,4-2.19,5.47l-4.02,4.11l0,0
			c-0.79,0.81-1.84,1.26-2.97,1.27c-0.02,0-0.03,0-0.05,0C590.1,187.72,589.05,187.3,588.26,186.52z M593.31,185.54l4.02-4.11
			c1.19-1.22,1.84-2.84,1.82-4.54c-0.02-1.71-0.7-3.31-1.93-4.5l-2.67-2.61c-2.52-2.46-6.58-2.42-9.04,0.11l-4.02,4.11
			c-0.55,0.56-0.84,1.3-0.83,2.08s0.32,1.51,0.88,2.06l7.64,7.46c0.56,0.55,1.29,0.85,2.08,0.83
			C592.03,186.41,592.76,186.1,593.31,185.54L593.31,185.54z"/>
		<path class="st6" d="M594.25,193.17l9.51-10.2c5.13-5.5,13.75-5.8,19.25-0.67l0.37,0.34c5.5,5.13,5.8,13.75,0.67,19.25l-9.51,10.2
			c-5.13,5.5-13.75,5.8-19.25,0.67l-0.37-0.34C589.42,207.28,589.12,198.67,594.25,193.17z"/>
		<path class="st3" d="M594.84,213.23l-0.37-0.34c-2.79-2.6-4.4-6.13-4.53-9.94s1.22-7.44,3.82-10.23l9.51-10.2
			c5.37-5.75,14.41-6.07,20.17-0.71l0.37,0.34c2.79,2.6,4.4,6.13,4.53,9.94s-1.22,7.44-3.82,10.23l-9.51,10.2
			c-2.6,2.79-6.13,4.4-9.94,4.53c-0.17,0.01-0.34,0.01-0.51,0.01C600.94,217.06,597.51,215.71,594.84,213.23z M604.23,183.41
			l-9.51,10.2c-2.36,2.53-3.6,5.84-3.48,9.3s1.58,6.67,4.12,9.03l0.37,0.34c2.53,2.36,5.84,3.59,9.3,3.48
			c3.46-0.12,6.67-1.58,9.03-4.12l9.51-10.2c2.36-2.53,3.6-5.84,3.48-9.3s-1.58-6.67-4.12-9.03l-0.37-0.34
			c-2.5-2.33-5.67-3.48-8.84-3.48C610.25,179.29,606.78,180.68,604.23,183.41z"/>
		<path class="st8" d="M609.64,209.82l2.73-2.8c3.19-3.26,3.13-8.49-0.14-11.68l-0.93-0.91c-3.26-3.19-8.49-3.13-11.68,0.14
			l-2.73,2.8c-1.62,1.66-1.59,4.31,0.07,5.93l6.75,6.6C605.37,211.51,608.02,211.47,609.64,209.82z"/>
		<path class="st3" d="M603.7,210.78l-7.64-7.46c-0.81-0.79-1.26-1.84-1.27-2.97s0.41-2.19,1.2-3l4.02-4.11
			c2.96-3.03,7.85-3.09,10.88-0.13l2.67,2.61c1.47,1.44,2.29,3.36,2.32,5.41c0.02,2.05-0.75,4-2.19,5.47l-4.02,4.11
			c-0.79,0.81-1.84,1.26-2.97,1.27c-0.02,0-0.03,0-0.05,0C605.54,211.99,604.49,211.56,603.7,210.78z M600.94,194.15l-4.02,4.11
			c-0.55,0.56-0.84,1.3-0.83,2.08s0.32,1.51,0.88,2.06l7.64,7.46c0.55,0.54,1.28,0.83,2.04,0.83c0.01,0,0.02,0,0.04,0
			c0.78-0.01,1.51-0.32,2.06-0.88l4.02-4.11c1.19-1.22,1.84-2.84,1.82-4.54c-0.02-1.71-0.7-3.31-1.93-4.5l-2.67-2.61
			c-1.24-1.21-2.86-1.82-4.47-1.82C603.85,192.22,602.19,192.86,600.94,194.15z"/>
		<path class="st6" d="M592.58,323c6.39-3.16,10.99-9.81,14.07-20.33c2.72-9.28,3.89-20.34,4.92-30.1c0.17-1.62,0.34-3.17,0.5-4.7
			l-56.82,27.97c-0.17,0.08-0.37,0.09-0.54,0.01s-0.31-0.22-0.36-0.41c-0.01-0.04-1.17-3.76-4.94-9.34
			c-3.5-5.18-10.03-13.01-21.2-20.93c-6.29-4.46-14.21-6.89-19.75-8.16c-6.03-1.37-10.62-1.69-10.66-1.69
			c-0.23-0.02-0.44-0.15-0.54-0.36c-0.13-0.26-12.98-26.14-18.76-37.85c-4.21-8.52-10.7-14.6-18.27-17.13
			c-5.2-1.74-10.59-1.63-14.41,0.29c-1.96,1.13-3.07,2.82-3.29,5.02c-0.18,1.79,0.3,3.25,0.39,3.45c0.76,1.53,2.72,5.62,5.43,11.28
			c11.26,23.46,37.61,78.42,51.09,103.04c0.3,0.54,1.08,1.98,1.26,30.46c0.07,11.1,0.01,22.06-0.01,26.21h90.56l0.98-56.18
			C592.23,323.32,592.37,323.1,592.58,323z"/>
		<path class="st3" d="M613.23,266.23c-0.19-0.14-0.45-0.16-0.66-0.05l-57.23,28.17c-0.52-1.37-1.9-4.61-4.86-8.97
			c-3.57-5.26-10.19-13.23-21.53-21.26c-6.47-4.58-14.57-7.08-20.24-8.37c-5.13-1.17-9.24-1.58-10.47-1.68
			c-1.52-3.06-13.17-26.53-18.6-37.52c-2.32-4.69-5.26-8.64-8.75-11.75c-3.11-2.77-6.57-4.8-10.27-6.04
			c-5.53-1.85-11.3-1.71-15.43,0.37c-0.01,0.01-0.02,0.01-0.03,0.02c-2.93,1.69-3.76,4.2-3.95,6.02c-0.2,1.92,0.28,3.66,0.52,4.15
			c0.75,1.53,2.71,5.61,5.43,11.27c11.26,23.47,37.63,78.45,51.12,103.11c0.28,0.52,0.95,4.46,1.1,29.86
			c0.07,11.08,0.01,22.04-0.01,26.18h0.65c0.06-9.39,0.27-53.72-1.17-56.35c-16.68-30.49-52.59-106.38-56.53-114.35
			c-0.32-0.65-1.95-6.38,3.17-9.32c8.2-4.13,24.67-0.9,33.57,17.12c5.85,11.84,18.76,37.85,18.76,37.85s18.4,1.21,30.75,9.96
			c21.78,15.45,26.39,30.61,26.39,30.61l57.88-28.5c-2.36,20.84-3.78,48.81-19.98,56.81l-0.98,56.17h0.65l0.98-55.76
			c6.54-3.39,11.25-10.25,14.38-20.95c2.75-9.39,3.93-20.51,4.97-30.32c0.22-2.04,0.42-3.96,0.64-5.87
			C613.53,266.6,613.42,266.37,613.23,266.23z"/>
		<path class="st3" d="M500.69,353.54c-0.18-28.48-0.96-29.92-1.26-30.46c-13.47-24.63-39.83-79.58-51.09-103.04
			c-2.72-5.66-4.68-9.75-5.43-11.28c-0.1-0.19-0.58-1.66-0.39-3.45c0.22-2.2,1.33-3.89,3.29-5.02c3.83-1.92,9.21-2.03,14.41-0.29
			c7.57,2.53,14.06,8.61,18.27,17.13c5.79,11.71,18.64,37.59,18.76,37.85c0.1,0.21,0.31,0.34,0.54,0.36c0.05,0,4.64,0.32,10.66,1.69
			c5.54,1.26,13.46,3.7,19.75,8.16c11.17,7.92,17.7,15.75,21.2,20.93c3.78,5.57,4.93,9.3,4.94,9.34c0.06,0.18,0.19,0.33,0.36,0.41
			c0.17,0.08,0.37,0.07,0.54-0.01l56.82-27.97c-0.17,1.53-0.33,3.08-0.5,4.7c-1.03,9.76-2.2,20.81-4.92,30.1
			c-3.08,10.53-7.68,17.18-14.07,20.33c-0.22,0.11-0.36,0.33-0.36,0.57l-0.98,56.18h0.65l0.98-56.17
			c16.2-8.01,17.62-35.98,19.98-56.81l-57.88,28.5c0,0-4.61-15.16-26.39-30.61c-12.35-8.76-30.75-9.96-30.75-9.96
			s-12.91-26.01-18.76-37.85c-8.9-18.02-25.37-21.26-33.57-17.12c-5.12,2.95-3.49,8.67-3.17,9.32
			c3.94,7.97,39.85,83.86,56.53,114.35c1.44,2.63,1.23,46.96,1.17,56.35h0.65C500.71,375.6,500.76,364.64,500.69,353.54z"/>
		<g>
			<path class="st8" d="M449.4,205.57c2-0.99,4.42-0.17,5.41,1.83l1.91,3.87c5.77,11.67-6.33,14.51-6.33,14.51l-8.22-16.64
				L449.4,205.57z"/>
			<path d="M449.82,226.07l-8.22-16.64c-0.08-0.15-0.09-0.33-0.03-0.5c0.06-0.16,0.17-0.3,0.33-0.37l7.22-3.57l0,0
				c2.32-1.15,5.14-0.19,6.28,2.13l1.91,3.87c1.84,3.72,2.12,6.99,0.84,9.71c-2.06,4.37-7.37,5.66-7.6,5.71
				c-0.05,0.01-0.1,0.02-0.15,0.02C450.16,226.43,449.93,226.3,449.82,226.07z M449.69,206.15l-6.64,3.28l7.7,15.57
				c1.29-0.41,4.78-1.78,6.23-4.87c1.1-2.34,0.82-5.23-0.83-8.58l-1.91-3.87c-0.59-1.2-1.8-1.89-3.05-1.89
				C450.68,205.8,450.17,205.92,449.69,206.15z"/>
		</g>
		<g>
			<g>
				<g>
					<path class="st1" d="M518.54,162.55c-6.42-1.71-12.39-4.22-17.88-7.82c-4.72-3.1-8.77-6.88-11.75-11.74
						c-6.07-9.88-3.48-20.97,4.81-26.83c9.17-6.49,20.91-4.06,27,4.29c3.02,4.15,4.28,8.92,4.56,13.96
						c0.49,8.76-1.54,17.03-5.16,24.95C519.65,160.41,519.1,161.43,518.54,162.55z M518.8,126.32c-3.6-8.21-12.49-11.72-20.11-8.37
						c-7.86,3.45-11.12,12.52-7.86,19.85c3.71,8.33,12.38,11.13,21.83,6.98c2.58-2.07,4.9-4.35,6.1-7.55
						C520.24,133.34,520.16,129.51,518.8,126.32z"/>
				</g>
				<circle class="st1" cx="504.21" cy="131.38" r="16.25"/>
			</g>
			<circle class="st9" cx="506.14" cy="134.33" r="8.71"/>
		</g>
		<path class="st6" d="M611.79,215.21l8.81-9.45c4.75-5.1,12.74-5.38,17.84-0.62l0.34,0.32c5.1,4.75,5.38,12.74,0.62,17.84
			l-8.81,9.45c-4.75,5.1-12.74,5.38-17.84,0.62l-0.34-0.32C607.32,228.3,607.04,220.31,611.79,215.21z"/>
		<path class="st3" d="M612.34,233.81l-0.34-0.32c-2.58-2.41-4.07-5.68-4.2-9.21c-0.12-3.53,1.14-6.9,3.54-9.48l8.81-9.45
			c2.41-2.58,5.68-4.07,9.21-4.2c3.53-0.12,6.9,1.14,9.48,3.54l0.34,0.32c2.58,2.41,4.07,5.68,4.2,9.21
			c0.12,3.53-1.14,6.9-3.54,9.48l-8.81,9.45c-2.41,2.58-5.68,4.07-9.21,4.2c-0.16,0.01-0.32,0.01-0.47,0.01
			C617.99,237.36,614.81,236.11,612.34,233.81z M629.41,202.36c-3.21,0.11-6.18,1.47-8.37,3.82l-8.81,9.45
			c-2.19,2.35-3.33,5.41-3.22,8.62c0.11,3.21,1.47,6.18,3.82,8.37l0.34,0.32c2.35,2.19,5.41,3.33,8.62,3.22s6.18-1.47,8.37-3.82
			l8.81-9.45c2.19-2.35,3.33-5.41,3.22-8.62c-0.11-3.21-1.47-6.18-3.82-8.37l-0.34-0.32c-2.24-2.09-5.14-3.23-8.19-3.23
			C629.7,202.35,629.56,202.35,629.41,202.36z"/>
		<path class="st8" d="M626.73,230.15l1.9-1.94c3.19-3.26,3.13-8.49-0.14-11.68l0,0c-3.26-3.19-8.49-3.13-11.68,0.14l-1.9,1.94
			c-1.62,1.66-1.59,4.31,0.07,5.93l5.82,5.68C622.45,231.84,625.11,231.81,626.73,230.15z"/>
		<path class="st3" d="M621.01,231.27l-7.08-6.91c-0.75-0.73-1.17-1.71-1.18-2.76c-0.01-1.05,0.38-2.03,1.11-2.78l3.72-3.81
			c1.33-1.36,3.11-2.13,5.02-2.15c0.03,0,0.06,0,0.09,0c1.87,0,3.64,0.72,4.98,2.03l2.48,2.42c2.81,2.75,2.87,7.27,0.12,10.08
			l-3.72,3.81l0,0c-0.73,0.75-1.71,1.17-2.76,1.18c-0.02,0-0.03,0-0.05,0C622.71,232.38,621.74,231.99,621.01,231.27z
			 M625.68,230.36l3.72-3.81c2.28-2.34,2.24-6.1-0.1-8.38l-2.48-2.42c-1.13-1.11-2.63-1.7-4.21-1.69c-1.58,0.02-3.06,0.65-4.17,1.79
			l-3.72,3.81c-0.51,0.52-0.78,1.2-0.77,1.93c0.01,0.72,0.3,1.4,0.82,1.91l7.08,6.91c0.52,0.51,1.2,0.78,1.93,0.77
			C624.5,231.17,625.18,230.88,625.68,230.36L625.68,230.36z"/>
	</g>
</g>
</svg>
