<?xml version="1.0" encoding="utf-8"?>
<!-- Generator: Adobe Illustrator 23.1.0, SVG Export Plug-In . SVG Version: 6.00 Build 0)  -->
<svg version="1.1" id="레이어_1" xmlns="http://www.w3.org/2000/svg" xmlns:xlink="http://www.w3.org/1999/xlink" x="0px"
	 y="0px" viewBox="0 0 252 354.6" style="enable-background:new 0 0 252 354.6;" xml:space="preserve">
<style type="text/css">
	.st0{fill:#FFC6BA;}
	.st1{fill:#3C3B38;}
	.st2{fill:#C5DEE2;}
	.st3{fill:#FAE6E6;}
	.st4{fill:#FFFFFF;}
	.st5{fill:#FFB660;}
</style>
<g>
	<path class="st0" d="M144.02,126.88l1.89,0.64c6.6,2.24,13.77-1.31,16-7.91l18.46-54.52c2.24-6.6-1.31-13.77-7.91-16l-1.89-0.64
		c-6.6-2.24-13.77,1.31-16,7.91l-18.46,54.52C133.88,117.48,137.42,124.64,144.02,126.88z"/>
	<path class="st1" d="M146.04,128.25l-2.57-0.87c-6.74-2.28-10.37-9.63-8.09-16.37l18.69-55.2c1.11-3.27,3.42-5.91,6.51-7.44
		s6.6-1.76,9.86-0.65l2.57,0.87c6.74,2.28,10.37,9.63,8.09,16.37l-18.69,55.2c-1.82,5.38-6.86,8.77-12.24,8.77
		C148.8,128.93,147.41,128.71,146.04,128.25z M161.16,49.53c-2.78,1.37-4.86,3.75-5.86,6.69l-18.69,55.2
		c-2.05,6.07,1.21,12.67,7.28,14.73l-0.21,0.61l0.21-0.61l2.57,0.87c6.07,2.05,12.67-1.21,14.73-7.28l18.69-55.2
		c2.05-6.07-1.21-12.67-7.28-14.73l-2.57-0.87c-1.22-0.41-2.48-0.62-3.74-0.62C164.53,48.33,162.78,48.73,161.16,49.53z"/>
	<path class="st1" d="M125.24,259.68l77.21-38.13c9.37-4.63,13.22-15.98,8.59-25.35L126.61,25.21c-4.63-9.37-15.98-13.22-25.35-8.59
		L24.05,54.75c-9.37,4.63-13.22,15.98-8.59,25.35l84.43,170.99C104.52,260.46,115.87,264.31,125.24,259.68z"/>
	<path class="st1" d="M110.58,261.25c-4.95-1.68-8.95-5.18-11.27-9.87L14.88,80.39c-2.32-4.69-2.67-10-0.99-14.95
		c1.68-4.95,5.18-8.96,9.87-11.27l77.21-38.13c4.69-2.32,10-2.67,14.95-0.99s8.95,5.18,11.27,9.87l84.43,170.99
		c2.32,4.69,2.67,10,0.99,14.95s-5.18,8.96-9.87,11.27l-77.21,38.13c-2.74,1.35-5.68,2.03-8.65,2.03
		C114.76,262.29,112.64,261.95,110.58,261.25z M202.17,220.97c4.38-2.16,7.65-5.9,9.22-10.52c1.57-4.62,1.24-9.58-0.92-13.96
		L126.03,25.5c-2.16-4.38-5.9-7.65-10.52-9.22s-9.58-1.24-13.96,0.92L24.34,55.33c-4.38,2.16-7.65,5.9-9.22,10.52
		s-1.24,9.58,0.92,13.96l84.43,170.99c2.16,4.38,5.9,7.65,10.52,9.22s9.58,1.24,13.96-0.92L202.17,220.97z"/>
	<g>
		<g>
			<path class="st2" d="M124.76,253.86l73.38-36.23c7.57-3.74,10.68-12.91,6.94-20.48L122.23,29.38
				c-3.74-7.57-12.91-10.68-20.48-6.94L28.37,58.67c-7.57,3.74-10.68,12.91-6.94,20.48l82.84,167.78
				C108.01,254.49,117.18,257.6,124.76,253.86z"/>
		</g>
	</g>
	<g>
		<path d="M61.03,51.02l14.8-7.31c1.33-0.66,1.9-0.29,2.22,0.35c0.32,0.64,0.26,1.32-1.07,1.98l-14.8,7.31
			c-1.33,0.66-1.9,0.29-2.22-0.35C59.64,52.35,59.7,51.67,61.03,51.02z"/>
	</g>
	<path class="st0" d="M163.77,125.57l9.51-10.2c5.13-5.5,13.75-5.8,19.25-0.67l0.37,0.34c5.5,5.13,5.8,13.75,0.67,19.25l-9.51,10.2
		c-5.13,5.5-13.75,5.8-19.25,0.67l-0.37-0.34C158.95,139.69,158.64,131.07,163.77,125.57z"/>
	<path class="st1" d="M164.37,145.64L164,145.3c-2.79-2.6-4.4-6.13-4.53-9.94s1.22-7.44,3.82-10.23l9.51-10.2
		c5.37-5.75,14.41-6.07,20.17-0.71l0.37,0.34c2.79,2.6,4.4,6.13,4.53,9.94s-1.22,7.44-3.82,10.23l-9.51,10.2
		c-2.6,2.79-6.13,4.4-9.94,4.53c-0.17,0.01-0.34,0.01-0.51,0.01C170.47,149.47,167.03,148.12,164.37,145.64z M173.76,115.82
		l-9.51,10.2l0,0c-2.36,2.53-3.6,5.84-3.48,9.3s1.58,6.67,4.12,9.03l0.37,0.34c2.53,2.36,5.84,3.6,9.3,3.48
		c3.46-0.12,6.67-1.58,9.03-4.12l9.51-10.2c2.36-2.53,3.6-5.84,3.48-9.3s-1.58-6.67-4.12-9.03l-0.37-0.34
		c-2.5-2.33-5.67-3.48-8.84-3.48C179.77,111.7,176.31,113.08,173.76,115.82z"/>
	<path class="st3" d="M179.46,142.63l2.73-2.8c3.19-3.26,3.13-8.49-0.14-11.68l-0.93-0.91c-3.26-3.19-8.49-3.13-11.68,0.14
		l-2.73,2.8c-1.62,1.66-1.59,4.31,0.07,5.93l6.75,6.6C175.19,144.32,177.84,144.29,179.46,142.63z"/>
	<path class="st1" d="M173.52,143.6l-7.64-7.46c-0.81-0.79-1.26-1.84-1.27-2.97s0.41-2.19,1.2-3l4.02-4.11
		c2.96-3.03,7.85-3.09,10.88-0.13l2.67,2.61c1.47,1.44,2.29,3.36,2.32,5.41s-0.75,4-2.19,5.47l-4.02,4.11l0,0
		c-0.79,0.81-1.84,1.26-2.97,1.27c-0.02,0-0.03,0-0.05,0C175.36,144.8,174.31,144.38,173.52,143.6z M178.57,142.62l4.02-4.11
		c1.19-1.22,1.84-2.84,1.82-4.54c-0.02-1.71-0.7-3.31-1.93-4.5l-2.67-2.61c-2.52-2.46-6.58-2.42-9.04,0.11l-4.02,4.11
		c-0.55,0.56-0.84,1.3-0.83,2.08s0.32,1.51,0.88,2.06l7.64,7.46c0.56,0.55,1.29,0.85,2.08,0.83
		C177.29,143.49,178.02,143.18,178.57,142.62L178.57,142.62z"/>
	<path class="st0" d="M179.51,150.25l9.51-10.2c5.13-5.5,13.75-5.8,19.25-0.67l0.37,0.34c5.5,5.13,5.8,13.75,0.67,19.25l-9.51,10.2
		c-5.13,5.5-13.75,5.8-19.25,0.67l-0.37-0.34C174.68,164.36,174.38,155.75,179.51,150.25z"/>
	<path class="st1" d="M180.1,170.31l-0.37-0.34c-2.79-2.6-4.4-6.13-4.53-9.94s1.22-7.44,3.82-10.23l9.51-10.2
		c5.37-5.75,14.41-6.07,20.17-0.71l0.37,0.34c2.79,2.6,4.4,6.13,4.53,9.94s-1.22,7.44-3.82,10.23l-9.51,10.2
		c-2.6,2.79-6.13,4.4-9.94,4.53c-0.17,0.01-0.34,0.01-0.51,0.01C186.2,174.14,182.77,172.79,180.1,170.31z M189.49,140.49
		l-9.51,10.2c-2.36,2.53-3.6,5.84-3.48,9.3s1.58,6.67,4.12,9.03l0.37,0.34c2.53,2.36,5.84,3.59,9.3,3.48
		c3.46-0.12,6.67-1.58,9.03-4.12l9.51-10.2c2.36-2.53,3.6-5.84,3.48-9.3s-1.58-6.67-4.12-9.03l-0.37-0.34
		c-2.5-2.33-5.67-3.48-8.84-3.48C195.51,136.37,192.04,137.76,189.49,140.49z"/>
	<path class="st3" d="M194.9,166.9l2.73-2.8c3.19-3.26,3.13-8.49-0.14-11.68l-0.93-0.91c-3.26-3.19-8.49-3.13-11.68,0.14l-2.73,2.8
		c-1.62,1.66-1.59,4.31,0.07,5.93l6.75,6.6C190.63,168.59,193.28,168.55,194.9,166.9z"/>
	<path class="st1" d="M188.96,167.86l-7.64-7.46c-0.81-0.79-1.26-1.84-1.27-2.97s0.41-2.19,1.2-3l4.02-4.11
		c2.96-3.03,7.85-3.09,10.88-0.13l2.67,2.61c1.47,1.44,2.29,3.36,2.32,5.41c0.02,2.05-0.75,4-2.19,5.47l-4.02,4.11
		c-0.79,0.81-1.84,1.26-2.97,1.27c-0.02,0-0.03,0-0.05,0C190.8,169.07,189.75,168.64,188.96,167.86z M186.2,151.23l-4.02,4.11
		c-0.55,0.56-0.84,1.3-0.83,2.08s0.32,1.51,0.88,2.06l7.64,7.46c0.55,0.54,1.28,0.83,2.04,0.83c0.01,0,0.02,0,0.04,0
		c0.78-0.01,1.51-0.32,2.06-0.88l4.02-4.11c1.19-1.22,1.84-2.84,1.82-4.54c-0.02-1.71-0.7-3.31-1.93-4.5l-2.67-2.61
		c-1.24-1.21-2.86-1.82-4.47-1.82C189.11,149.3,187.45,149.94,186.2,151.23z"/>
	<path class="st0" d="M177.84,280.08c6.39-3.16,10.99-9.81,14.07-20.33c2.72-9.28,3.89-20.34,4.92-30.1c0.17-1.62,0.34-3.17,0.5-4.7
		l-56.82,27.97c-0.17,0.08-0.37,0.09-0.54,0.01s-0.31-0.22-0.36-0.41c-0.01-0.04-1.17-3.76-4.94-9.34
		c-3.5-5.18-10.03-13.01-21.2-20.93c-6.29-4.46-14.21-6.89-19.75-8.16c-6.03-1.37-10.62-1.69-10.66-1.69
		c-0.23-0.02-0.44-0.15-0.54-0.36c-0.13-0.26-12.98-26.14-18.76-37.85c-4.21-8.52-10.7-14.6-18.27-17.13
		c-5.2-1.74-10.59-1.63-14.41,0.29c-1.96,1.13-3.07,2.82-3.29,5.02c-0.18,1.79,0.3,3.25,0.39,3.45c0.76,1.53,2.72,5.62,5.43,11.28
		c11.26,23.46,37.61,78.42,51.09,103.04c0.3,0.54,1.08,1.98,1.26,30.46c0.07,11.1,0.01,22.06-0.01,26.21h90.56l0.98-56.18
		C177.49,280.4,177.63,280.18,177.84,280.08z"/>
	<path class="st1" d="M198.49,223.31c-0.19-0.14-0.45-0.16-0.66-0.05l-57.23,28.17c-0.52-1.37-1.9-4.61-4.86-8.97
		c-3.57-5.26-10.19-13.23-21.53-21.26c-6.47-4.58-14.57-7.08-20.24-8.37c-5.13-1.17-9.24-1.58-10.47-1.68
		c-1.52-3.06-13.17-26.53-18.6-37.52c-2.32-4.69-5.26-8.64-8.75-11.75c-3.11-2.77-6.57-4.8-10.27-6.04
		c-5.53-1.85-11.3-1.71-15.43,0.37c-0.01,0.01-0.02,0.01-0.03,0.02c-2.93,1.69-3.76,4.2-3.95,6.02c-0.2,1.92,0.28,3.66,0.52,4.15
		c0.75,1.53,2.71,5.61,5.43,11.27c11.26,23.47,37.63,78.45,51.12,103.11c0.28,0.52,0.95,4.46,1.1,29.86
		c0.07,11.08,0.01,22.04-0.01,26.18h0.65c0.06-9.39,0.27-53.72-1.17-56.35c-16.68-30.49-52.59-106.38-56.53-114.35
		c-0.32-0.65-1.95-6.38,3.17-9.32c8.2-4.13,24.67-0.9,33.57,17.12c5.85,11.84,18.76,37.85,18.76,37.85s18.4,1.21,30.75,9.96
		c21.78,15.45,26.39,30.61,26.39,30.61l57.88-28.5c-2.36,20.84-3.78,48.81-19.98,56.81l-0.98,56.17h0.65l0.98-55.76
		c6.54-3.39,11.25-10.25,14.38-20.95c2.75-9.39,3.93-20.51,4.97-30.32c0.22-2.04,0.42-3.96,0.64-5.87
		C198.79,223.68,198.68,223.45,198.49,223.31z"/>
	<path class="st1" d="M85.95,310.62c-0.18-28.48-0.96-29.92-1.26-30.46c-13.47-24.63-39.83-79.58-51.09-103.04
		c-2.72-5.66-4.68-9.75-5.43-11.28c-0.1-0.19-0.58-1.66-0.39-3.45c0.22-2.2,1.33-3.89,3.29-5.02c3.83-1.92,9.21-2.03,14.41-0.29
		c7.57,2.53,14.06,8.61,18.27,17.13c5.79,11.71,18.64,37.59,18.76,37.85c0.1,0.21,0.31,0.34,0.54,0.36c0.05,0,4.64,0.32,10.66,1.69
		c5.54,1.26,13.46,3.7,19.75,8.16c11.17,7.92,17.7,15.75,21.2,20.93c3.78,5.57,4.93,9.3,4.94,9.34c0.06,0.18,0.19,0.33,0.36,0.41
		c0.17,0.08,0.37,0.07,0.54-0.01l56.82-27.97c-0.17,1.53-0.33,3.08-0.5,4.7c-1.03,9.76-2.2,20.81-4.92,30.1
		c-3.08,10.53-7.68,17.18-14.07,20.33c-0.22,0.11-0.36,0.33-0.36,0.57l-0.98,56.18h0.65l0.98-56.17
		c16.2-8.01,17.62-35.98,19.98-56.81l-57.88,28.5c0,0-4.61-15.16-26.39-30.61c-12.35-8.76-30.75-9.96-30.75-9.96
		s-12.91-26.01-18.76-37.85c-8.9-18.02-25.37-21.26-33.57-17.12c-5.12,2.95-3.49,8.67-3.17,9.32c3.94,7.97,39.85,83.86,56.53,114.35
		c1.44,2.63,1.23,46.96,1.17,56.35h0.65C85.97,332.68,86.02,321.72,85.95,310.62z"/>
	<g>
		<path class="st3" d="M34.66,162.65c2-0.99,4.42-0.17,5.41,1.83l1.91,3.87c5.77,11.67-6.33,14.51-6.33,14.51l-8.22-16.64
			L34.66,162.65z"/>
		<path d="M35.08,183.15l-8.22-16.64c-0.08-0.15-0.09-0.33-0.03-0.5c0.06-0.16,0.17-0.3,0.33-0.37l7.22-3.57l0,0
			c2.32-1.15,5.14-0.19,6.28,2.13l1.91,3.87c1.84,3.72,2.12,6.99,0.84,9.71c-2.06,4.37-7.37,5.66-7.6,5.71
			c-0.05,0.01-0.1,0.02-0.15,0.02C35.42,183.51,35.19,183.38,35.08,183.15z M34.95,163.23l-6.64,3.28l7.7,15.57
			c1.29-0.41,4.78-1.78,6.23-4.87c1.1-2.34,0.82-5.23-0.83-8.58l-1.91-3.87c-0.59-1.2-1.8-1.89-3.05-1.89
			C35.94,162.88,35.43,163,34.95,163.23z"/>
	</g>
	<g>
		<g>
			<g>
				<path class="st4" d="M103.8,119.63c-6.42-1.71-12.39-4.22-17.88-7.82c-4.72-3.1-8.77-6.88-11.75-11.74
					c-6.07-9.88-3.48-20.97,4.81-26.83c9.17-6.49,20.91-4.06,27,4.29c3.02,4.15,4.28,8.92,4.56,13.96
					c0.49,8.76-1.54,17.03-5.16,24.95C104.91,117.49,104.36,118.51,103.8,119.63z M104.06,83.4c-3.6-8.21-12.49-11.72-20.11-8.37
					c-7.86,3.45-11.12,12.52-7.86,19.85c3.71,8.33,12.38,11.13,21.83,6.98c2.58-2.07,4.9-4.35,6.1-7.55
					C105.5,90.42,105.42,86.59,104.06,83.4z"/>
			</g>
			<circle class="st4" cx="89.47" cy="88.46" r="16.25"/>
		</g>
		<circle class="st5" cx="91.4" cy="91.41" r="8.71"/>
	</g>
	<path class="st0" d="M197.05,172.29l8.81-9.45c4.75-5.1,12.74-5.38,17.84-0.62l0.34,0.32c5.1,4.75,5.38,12.74,0.62,17.84
		l-8.81,9.45c-4.75,5.1-12.74,5.38-17.84,0.62l-0.34-0.32C192.58,185.38,192.3,177.39,197.05,172.29z"/>
	<path class="st1" d="M197.6,190.89l-0.34-0.32c-2.58-2.41-4.07-5.68-4.2-9.21c-0.12-3.53,1.14-6.9,3.54-9.48l8.81-9.45
		c2.41-2.58,5.68-4.07,9.21-4.2c3.53-0.12,6.9,1.14,9.48,3.54l0.34,0.32c2.58,2.41,4.07,5.68,4.2,9.21c0.12,3.53-1.14,6.9-3.54,9.48
		l-8.81,9.45c-2.41,2.58-5.68,4.07-9.21,4.2c-0.16,0.01-0.32,0.01-0.47,0.01C203.25,194.44,200.07,193.19,197.6,190.89z
		 M214.67,159.44c-3.21,0.11-6.18,1.47-8.37,3.82l-8.81,9.45c-2.19,2.35-3.33,5.41-3.22,8.62c0.11,3.21,1.47,6.18,3.82,8.37
		l0.34,0.32c2.35,2.19,5.41,3.33,8.62,3.22s6.18-1.47,8.37-3.82l8.81-9.45c2.19-2.35,3.33-5.41,3.22-8.62
		c-0.11-3.21-1.47-6.18-3.82-8.37l-0.34-0.32c-2.24-2.09-5.14-3.23-8.19-3.23C214.96,159.43,214.82,159.43,214.67,159.44z"/>
	<path class="st3" d="M211.99,187.23l1.9-1.94c3.19-3.26,3.13-8.49-0.14-11.68l0,0c-3.26-3.19-8.49-3.13-11.68,0.14l-1.9,1.94
		c-1.62,1.66-1.59,4.31,0.07,5.93l5.82,5.68C207.71,188.92,210.37,188.89,211.99,187.23z"/>
	<path class="st1" d="M206.27,188.35l-7.08-6.91c-0.75-0.73-1.17-1.71-1.18-2.76c-0.01-1.05,0.38-2.03,1.11-2.78l3.72-3.81
		c1.33-1.36,3.11-2.13,5.02-2.15c0.03,0,0.06,0,0.09,0c1.87,0,3.64,0.72,4.98,2.03l2.48,2.42c2.81,2.75,2.87,7.27,0.12,10.08
		l-3.72,3.81l0,0c-0.73,0.75-1.71,1.17-2.76,1.18c-0.02,0-0.03,0-0.05,0C207.97,189.46,207,189.07,206.27,188.35z M210.94,187.44
		l3.72-3.81c2.28-2.34,2.24-6.1-0.1-8.38l-2.48-2.42c-1.13-1.11-2.63-1.7-4.21-1.69c-1.58,0.02-3.06,0.65-4.17,1.79l-3.72,3.81
		c-0.51,0.52-0.78,1.2-0.77,1.93c0.01,0.72,0.3,1.4,0.82,1.91l7.08,6.91c0.52,0.51,1.2,0.78,1.93,0.77
		C209.76,188.25,210.44,187.96,210.94,187.44L210.94,187.44z"/>
</g>
</svg>
