<?xml version="1.0" encoding="utf-8"?>
<!-- Generator: Adobe Illustrator 23.1.0, SVG Export Plug-In . SVG Version: 6.00 Build 0)  -->
<svg version="1.1" id="Layer_1" xmlns="http://www.w3.org/2000/svg" xmlns:xlink="http://www.w3.org/1999/xlink" x="0px" y="0px"
	 viewBox="0 0 124 126" style="enable-background:new 0 0 124 126;" xml:space="preserve">
<style type="text/css">
	.st0{fill:#FFB302;}
</style>
<g>
	<circle class="st0" cx="60.55" cy="60.25" r="33"/>
	<g>
		<g>
			<path class="st0" d="M60.55,21.25L60.55,21.25c-1.1,0-2-0.9-2-2v-8c0-1.1,0.9-2,2-2h0c1.1,0,2,0.9,2,2v8
				C62.55,20.35,61.65,21.25,60.55,21.25z"/>
			<path class="st0" d="M60.55,114.25L60.55,114.25c-1.1,0-2-0.9-2-2v-8c0-1.1,0.9-2,2-2h0c1.1,0,2,0.9,2,2v8
				C62.55,113.35,61.65,114.25,60.55,114.25z"/>
		</g>
	</g>
	<g>
		<g>
			<path class="st0" d="M31.91,33.11L31.91,33.11c-0.78,0.78-2.05,0.78-2.83,0l-5.66-5.66c-0.78-0.78-0.78-2.05,0-2.83l0,0
				c0.78-0.78,2.05-0.78,2.83,0l5.66,5.66C32.69,31.06,32.69,32.33,31.91,33.11z"/>
			<path class="st0" d="M97.67,98.87L97.67,98.87c-0.78,0.78-2.05,0.78-2.83,0l-5.66-5.66c-0.78-0.78-0.78-2.05,0-2.83h0
				c0.78-0.78,2.05-0.78,2.83,0l5.66,5.66C98.45,96.82,98.45,98.1,97.67,98.87z"/>
		</g>
	</g>
	<g>
		<g>
			<path class="st0" d="M20.05,61.75L20.05,61.75c0,1.1-0.9,2-2,2h-8c-1.1,0-2-0.9-2-2v0c0-1.1,0.9-2,2-2h8
				C19.15,59.75,20.05,60.65,20.05,61.75z"/>
			<path class="st0" d="M113.05,61.75L113.05,61.75c0,1.1-0.9,2-2,2h-8c-1.1,0-2-0.9-2-2v0c0-1.1,0.9-2,2-2h8
				C112.15,59.75,113.05,60.65,113.05,61.75z"/>
		</g>
	</g>
	<g>
		<g>
			<path class="st0" d="M31.91,90.39L31.91,90.39c0.78,0.78,0.78,2.05,0,2.83l-5.66,5.66c-0.78,0.78-2.05,0.78-2.83,0h0
				c-0.78-0.78-0.78-2.05,0-2.83l5.66-5.66C29.86,89.61,31.13,89.61,31.91,90.39z"/>
			<path class="st0" d="M97.67,24.63L97.67,24.63c0.78,0.78,0.78,2.05,0,2.83l-5.66,5.66c-0.78,0.78-2.05,0.78-2.83,0h0
				c-0.78-0.78-0.78-2.05,0-2.83l5.66-5.66C95.62,23.85,96.9,23.85,97.67,24.63z"/>
		</g>
	</g>
</g>
</svg>
