<?xml version="1.0" encoding="utf-8"?>
<!-- Generator: Adobe Illustrator 23.1.0, SVG Export Plug-In . SVG Version: 6.00 Build 0)  -->
<svg version="1.1" id="Layer_1" xmlns="http://www.w3.org/2000/svg" xmlns:xlink="http://www.w3.org/1999/xlink" x="0px" y="0px"
	 viewBox="0 0 124 126" style="enable-background:new 0 0 124 126;" xml:space="preserve">
<style type="text/css">
	.st0{fill:#FFD500;}
</style>
<g>
	<circle class="st0" cx="62.55" cy="58.25" r="33"/>
	<g>
		<g>
			<path class="st0" d="M62.55,19.25L62.55,19.25c-1.1,0-2-0.9-2-2v-8c0-1.1,0.9-2,2-2h0c1.1,0,2,0.9,2,2v8
				C64.55,18.35,63.65,19.25,62.55,19.25z"/>
			<path class="st0" d="M62.55,112.25L62.55,112.25c-1.1,0-2-0.9-2-2v-8c0-1.1,0.9-2,2-2h0c1.1,0,2,0.9,2,2v8
				C64.55,111.35,63.65,112.25,62.55,112.25z"/>
		</g>
	</g>
	<g>
		<g>
			<path class="st0" d="M33.91,31.11L33.91,31.11c-0.78,0.78-2.05,0.78-2.83,0l-5.66-5.66c-0.78-0.78-0.78-2.05,0-2.83l0,0
				c0.78-0.78,2.05-0.78,2.83,0l5.66,5.66C34.69,29.06,34.69,30.33,33.91,31.11z"/>
			<path class="st0" d="M99.67,96.87L99.67,96.87c-0.78,0.78-2.05,0.78-2.83,0l-5.66-5.66c-0.78-0.78-0.78-2.05,0-2.83h0
				c0.78-0.78,2.05-0.78,2.83,0l5.66,5.66C100.45,94.82,100.45,96.1,99.67,96.87z"/>
		</g>
	</g>
	<g>
		<g>
			<path class="st0" d="M22.05,59.75L22.05,59.75c0,1.1-0.9,2-2,2h-8c-1.1,0-2-0.9-2-2v0c0-1.1,0.9-2,2-2h8
				C21.15,57.75,22.05,58.65,22.05,59.75z"/>
			<path class="st0" d="M115.05,59.75L115.05,59.75c0,1.1-0.9,2-2,2h-8c-1.1,0-2-0.9-2-2v0c0-1.1,0.9-2,2-2h8
				C114.15,57.75,115.05,58.65,115.05,59.75z"/>
		</g>
	</g>
	<g>
		<g>
			<path class="st0" d="M33.91,88.39L33.91,88.39c0.78,0.78,0.78,2.05,0,2.83l-5.66,5.66c-0.78,0.78-2.05,0.78-2.83,0h0
				c-0.78-0.78-0.78-2.05,0-2.83l5.66-5.66C31.86,87.61,33.13,87.61,33.91,88.39z"/>
			<path class="st0" d="M99.67,22.63L99.67,22.63c0.78,0.78,0.78,2.05,0,2.83l-5.66,5.66c-0.78,0.78-2.05,0.78-2.83,0l0,0
				c-0.78-0.78-0.78-2.05,0-2.83l5.66-5.66C97.62,21.85,98.9,21.85,99.67,22.63z"/>
		</g>
	</g>
</g>
</svg>
