<?xml version="1.0" encoding="utf-8"?>
<!-- Generator: Adobe Illustrator 23.1.0, SVG Export Plug-In . SVG Version: 6.00 Build 0)  -->
<svg version="1.1" id="Layer_1" xmlns="http://www.w3.org/2000/svg" xmlns:xlink="http://www.w3.org/1999/xlink" x="0px" y="0px"
	 viewBox="0 0 492 341" style="enable-background:new 0 0 492 341;" xml:space="preserve">
<style type="text/css">
	.st0{fill:#232728;}
	.st1{fill:#3C7AD3;}
	.st2{fill:#FFFFFF;}
	.st3{fill:#383838;}
	.st4{fill:none;stroke:#000000;stroke-miterlimit:10;}
</style>
<g>
	<polyline class="st0" points="281.35,289.3 281.35,325.3 486.22,325.3 	"/>
	<polygon class="st1" points="22.28,39.8 22.28,270.8 268.28,270.8 268.28,39.8 236.28,39.8 236.28,180.8 51.28,180.8 51.28,39.8 	
		"/>
	<polyline class="st0" points="22.28,270.8 22.28,299.8 268.28,299.8 268.28,270.8 	"/>
	<path class="st0" d="M267.78,78.3h-246V46.6c0-10.66,8.64-19.3,19.3-19.3h207.4c10.66,0,19.3,8.64,19.3,19.3V78.3z"/>
	<g>
		<path class="st0" d="M47.28,299.8v12.29c0,6.72,7.99,12.21,17.75,12.21s17.75-5.5,17.75-12.21V299.8H47.28z"/>
	</g>
	<path class="st0" d="M210.28,299.8v12.29c0,6.72,7.99,12.21,17.75,12.21s17.75-5.5,17.75-12.21V299.8H210.28z"/>
	<circle class="st2" cx="58.28" cy="228.8" r="16"/>
	<circle class="st2" cx="233.28" cy="228.8" r="16"/>
	<path class="st2" d="M186.78,208.8h-83c-2.49,0-4.5-2.01-4.5-4.5v-1c0-2.49,2.01-4.5,4.5-4.5h83c2.49,0,4.5,2.01,4.5,4.5v1
		C191.28,206.79,189.27,208.8,186.78,208.8z"/>
	<path class="st2" d="M186.78,228.8h-83c-2.49,0-4.5-2.01-4.5-4.5v-1c0-2.49,2.01-4.5,4.5-4.5h83c2.49,0,4.5,2.01,4.5,4.5v1
		C191.28,226.79,189.27,228.8,186.78,228.8z"/>
	<path class="st2" d="M186.78,247.8h-83c-2.49,0-4.5-2.01-4.5-4.5v-1c0-2.49,2.01-4.5,4.5-4.5h83c2.49,0,4.5,2.01,4.5,4.5v1
		C191.28,245.79,189.27,247.8,186.78,247.8z"/>
	<path class="st1" d="M202.23,64.3H81.33c-4.17,0-7.55-3.38-7.55-7.55v-6.9c0-4.17,3.38-7.55,7.55-7.55h120.9
		c4.17,0,7.55,3.38,7.55,7.55v6.9C209.78,60.92,206.4,64.3,202.23,64.3z"/>
	<path class="st0" d="M279.88,152.3h-10.21c-1.05,0-1.9-0.85-1.9-1.9V121.2c0-1.05,0.85-1.9,1.9-1.9h10.21c1.05,0,1.9,0.85,1.9,1.9
		v29.21C281.78,151.45,280.93,152.3,279.88,152.3z"/>
	<path class="st0" d="M20.79,152.3H10.77c-1.1,0-1.99-0.89-1.99-1.99v-29.03c0-1.1,0.89-1.99,1.99-1.99h10.02
		c1.1,0,1.99,0.89,1.99,1.99v29.03C22.78,151.41,21.89,152.3,20.79,152.3z"/>
	<path class="st1" d="M393.17,228.39c-0.55,2.98-1.06,5.78-1.57,8.51c-0.78,0.6-1.56,0.3-2.28,0.27
		c-11.01-0.49-22.02-0.95-33.02-1.55c-5.13-0.28-8.73,1.59-11.13,6.28c-4.95,9.68-10.14,19.24-15.24,28.85
		c-0.54,1.02-1.12,2.01-1.79,3.21c-2.91-1.65-5.69-3.24-8.47-4.8c-3.99-2.24-5.92-1.69-8.17,2.31c-1.11,1.97-2.25,3.92-3.3,5.92
		c-1.55,2.95-0.94,5.34,1.92,6.99c5.7,3.27,11.4,6.53,17.2,9.63c5.18,2.77,10.11,1.08,12.93-4.23c6.03-11.35,12.06-22.71,18-34.11
		c0.76-1.46,1.6-1.84,3.18-1.76c11.62,0.61,23.26,0.97,34.86,1.73c6.77,0.45,10.59-2.43,11.86-9.49
		c2.55-14.11,5.36-28.18,8.05-42.27c1.15-6.04,2.33-12.08,3.36-18.14c1.52-8.95-5.7-18.41-14.77-19.49
		c-9.37-1.11-16.71,3.19-19.83,11.62c-3.49,9.41,1.63,19.9,11.2,22.92c0.7,0.22,1.45,0.34,2.16,0.94c-0.57,2.89-1.15,5.82-1.76,8.91
		c-0.89-0.04-1.63-0.08-2.37-0.11c-10.87-0.51-21.74-1.02-32.61-1.52c-4.39-0.2-6.03,1.29-6.23,5.63c-0.1,2.19-0.21,4.38-0.29,6.56
		c-0.14,3.7,1.44,5.48,5.16,5.66c10.32,0.51,20.65,0.98,30.97,1.46C391.78,228.33,392.39,228.36,393.17,228.39z"/>
	<path class="st3" d="M425.16,207.45c-0.63,4.68-0.99,9.25-1.92,13.7c-0.72,3.44,0.39,5.15,3.17,7.28
		c9.21,7.09,13.32,16.66,12.24,28.39c-1.32,14.31-13.05,25.03-25.14,27.36c-16.92,3.26-33.81-8-36.97-24.88
		c-0.05-0.26-0.13-0.52-0.26-1.02c-2.02,0.03-4.05,0.06-6.08,0.08c-0.8,0-1,0.6-1.25,1.16c-2,4.42-3.97,8.86-5.99,13.27
		c-0.43,0.94-0.19,1.69,0.24,2.51c7.55,14.42,19.22,23.55,35.24,26.53c15.02,2.8,28.69-0.73,40.51-10.5
		c9.73-8.04,15.66-18.41,17.31-30.94c2.22-16.85-2.84-31.32-15.09-43.18C436.77,212.97,429.4,208.46,425.16,207.45z"/>
	<path class="st4" d="M345.64,203.19"/>
</g>
</svg>
